<svg width="149" height="38" viewBox="0 0 149 38" fill="none" xmlns="http://www.w3.org/2000/svg">
<path d="M6.29906 7.25221C7.30872 6.88473 8.38087 6.71971 9.45429 6.76658C10.5277 6.81344 11.5814 7.07128 12.5552 7.52536C12.5992 7.54589 12.6423 7.56837 12.6843 7.59273L26.7899 15.7699C29.5652 17.3409 29.5159 21.1262 26.8008 22.6952L16.3751 28.8279C16.3616 28.8359 16.348 28.8437 16.3343 28.8512V25.055L25.1476 19.8707L25.1612 19.8628C25.4848 19.6766 25.5812 19.4239 25.5815 19.2275C25.5818 19.0345 25.4905 18.794 25.1748 18.6163L25.1566 18.6059L11.1106 10.4633C10.5435 10.2083 9.93305 10.0633 9.31154 10.0362C8.66748 10.0081 8.02419 10.1071 7.4184 10.3276C6.81261 10.5481 6.25617 10.8857 5.78087 11.3212C5.30557 11.7568 4.92071 12.2817 4.64826 12.8659C4.62361 12.9188 4.5965 12.9697 4.56712 13.0186C3.74179 14.8587 3.27273 16.8926 3.27273 19.0311C3.27273 22.9829 4.828 26.5711 7.36366 29.2176V33.5406C7.30735 33.508 7.25238 33.4717 7.19906 33.4316C2.83074 30.1505 0 24.9211 0 19.0311C0 16.2917 0.62855 13.6981 1.71816 11.3807C1.75242 11.3078 1.79137 11.2387 1.83447 11.1734C2.27538 10.3233 2.86253 9.55648 3.56985 8.90834C4.36202 8.18245 5.28941 7.6197 6.29906 7.25221Z" fill="url(#paint0_linear_1142_10392)"/>
<path d="M17.9985 4.30398C16.5093 4.30398 15.0736 4.52452 13.7212 4.93428L10.1094 2.849C10.1881 2.80996 10.2676 2.77155 10.3477 2.73388C12.6716 1.64119 15.2661 1.03125 17.9985 1.03125C27.9397 1.03125 35.9985 9.09012 35.9985 19.0312C35.9985 28.8974 28.061 36.9094 18.2231 37.0299L18.2031 37.0301V37.0312C18.176 37.0312 18.1489 37.0311 18.1218 37.0308C18.0807 37.0311 18.0396 37.0312 17.9985 37.0312V37.0286C17.0207 37.0035 16.0551 36.7988 15.1503 36.424C14.1825 36.0231 13.3031 35.4355 12.5623 34.6948C11.8215 33.954 11.2339 33.0746 10.833 32.1067C10.4321 31.1389 10.2258 30.1016 10.2258 29.054V20.1026L13.4985 21.9921V29.054C13.4985 29.6718 13.6202 30.2835 13.8566 30.8543C14.0931 31.4251 14.4396 31.9437 14.8765 32.3806C15.3133 32.8174 15.8319 33.164 16.4027 33.4004C16.9509 33.6275 17.5369 33.7487 18.1298 33.7579L18.183 33.7574C26.2314 33.6588 32.7258 27.1033 32.7258 19.0312C32.7258 10.8976 26.1322 4.30398 17.9985 4.30398Z" fill="url(#paint1_linear_1142_10392)"/>
<circle cx="11.8619" cy="16.5767" r="2.04545" fill="#7F6AA0"/>
<path d="M63.102 27.4588C62.6972 27.4588 62.3568 27.33 62.0808 27.0724C61.8232 26.7964 61.6944 26.456 61.6944 26.0512V18.1576C61.6944 16.9984 61.4092 16.1428 60.8388 15.5908C60.2684 15.0204 59.5232 14.7352 58.6032 14.7352C57.6464 14.7352 56.8552 15.0664 56.2296 15.7288C55.6224 16.3912 55.3188 17.2376 55.3188 18.268H53.028C53.028 17.072 53.2856 16.0232 53.8008 15.1216C54.316 14.2016 55.0336 13.484 55.9536 12.9688C56.892 12.4536 57.9592 12.196 59.1552 12.196C60.204 12.196 61.1332 12.426 61.9428 12.886C62.7524 13.346 63.378 14.0268 63.8196 14.9284C64.2796 15.8116 64.5096 16.888 64.5096 18.1576V26.0512C64.5096 26.456 64.3808 26.7964 64.1232 27.0724C63.8656 27.33 63.5252 27.4588 63.102 27.4588ZM44.6928 27.4588C44.288 27.4588 43.9476 27.33 43.6716 27.0724C43.414 26.7964 43.2852 26.456 43.2852 26.0512V13.7692C43.2852 13.346 43.414 13.0056 43.6716 12.748C43.9476 12.4904 44.288 12.3616 44.6928 12.3616C45.116 12.3616 45.4564 12.4904 45.714 12.748C45.9716 13.0056 46.1004 13.346 46.1004 13.7692V26.0512C46.1004 26.456 45.9716 26.7964 45.714 27.0724C45.4564 27.33 45.116 27.4588 44.6928 27.4588ZM53.9112 27.4588C53.5064 27.4588 53.166 27.33 52.89 27.0724C52.6324 26.7964 52.5036 26.456 52.5036 26.0512V18.1576C52.5036 16.9984 52.2184 16.1428 51.648 15.5908C51.0776 15.0204 50.3324 14.7352 49.4124 14.7352C48.4556 14.7352 47.6644 15.0664 47.0388 15.7288C46.4132 16.3912 46.1004 17.2376 46.1004 18.268H44.3616C44.3616 17.072 44.6008 16.0232 45.0792 15.1216C45.5576 14.2016 46.22 13.484 47.0664 12.9688C47.9128 12.4536 48.8788 12.196 49.9644 12.196C51.0132 12.196 51.9424 12.426 52.752 12.886C53.5616 13.346 54.1872 14.0268 54.6288 14.9284C55.0888 15.8116 55.3188 16.888 55.3188 18.1576V26.0512C55.3188 26.456 55.19 26.7964 54.9324 27.0724C54.6748 27.33 54.3344 27.4588 53.9112 27.4588Z" fill="#7F6AA0"/>
<path d="M74.2379 27.5416C72.8947 27.5416 71.6895 27.2104 70.6223 26.548C69.5551 25.8672 68.7087 24.9564 68.0831 23.8156C67.4759 22.6564 67.1723 21.35 67.1723 19.8964C67.1723 18.4428 67.5035 17.1364 68.1659 15.9772C68.8467 14.818 69.7575 13.9072 70.8983 13.2448C72.0575 12.564 73.3547 12.2236 74.7899 12.2236C76.2251 12.2236 77.5131 12.564 78.6539 13.2448C79.7947 13.9072 80.6963 14.818 81.3587 15.9772C82.0395 17.1364 82.3799 18.4428 82.3799 19.8964H81.3035C81.3035 21.35 80.9907 22.6564 80.3651 23.8156C79.7579 24.9564 78.9207 25.8672 77.8535 26.548C76.7863 27.2104 75.5811 27.5416 74.2379 27.5416ZM74.7899 25.0576C75.7283 25.0576 76.5655 24.8368 77.3015 24.3952C78.0375 23.9352 78.6171 23.3188 79.0403 22.546C79.4635 21.7548 79.6751 20.8716 79.6751 19.8964C79.6751 18.9028 79.4635 18.0196 79.0403 17.2468C78.6171 16.4556 78.0375 15.8392 77.3015 15.3976C76.5655 14.9376 75.7283 14.7076 74.7899 14.7076C73.8699 14.7076 73.0327 14.9376 72.2783 15.3976C71.5423 15.8392 70.9535 16.4556 70.5119 17.2468C70.0887 18.0196 69.8771 18.9028 69.8771 19.8964C69.8771 20.8716 70.0887 21.7548 70.5119 22.546C70.9535 23.3188 71.5423 23.9352 72.2783 24.3952C73.0327 24.8368 73.8699 25.0576 74.7899 25.0576ZM80.9723 27.4588C80.5675 27.4588 80.2271 27.33 79.9511 27.0724C79.6935 26.7964 79.5647 26.456 79.5647 26.0512V21.8284L80.0891 18.9028L82.3799 19.8964V26.0512C82.3799 26.456 82.2419 26.7964 81.9659 27.0724C81.7083 27.33 81.3771 27.4588 80.9723 27.4588Z" fill="#7F6AA0"/>
<path d="M91.6205 27.5416C90.2405 27.5416 89.0169 27.2196 87.9497 26.5756C86.9009 25.9132 86.0729 25.0116 85.4657 23.8708C84.8585 22.7116 84.5549 21.3868 84.5549 19.8964C84.5549 18.3876 84.8769 17.0628 85.5209 15.922C86.1833 14.7628 87.0849 13.8612 88.2257 13.2172C89.3665 12.5548 90.6821 12.2236 92.1725 12.2236C93.6445 12.2236 94.9509 12.5548 96.0917 13.2172C97.2325 13.8612 98.1249 14.7628 98.7689 15.922C99.4313 17.0628 99.7625 18.3876 99.7625 19.8964H98.1341C98.1341 21.3868 97.8489 22.7116 97.2785 23.8708C96.7265 25.0116 95.9629 25.9132 94.9877 26.5756C94.0125 27.2196 92.8901 27.5416 91.6205 27.5416ZM92.1173 33.6964C90.8109 33.6964 89.5873 33.4388 88.4465 32.9236C87.3057 32.4084 86.3397 31.654 85.5485 30.6604C85.3093 30.3476 85.2173 30.0256 85.2725 29.6944C85.3461 29.3632 85.5301 29.0964 85.8245 28.894C86.1557 28.6732 86.4961 28.5996 86.8457 28.6732C87.2137 28.7468 87.5081 28.9308 87.7289 29.2252C88.2257 29.8508 88.8513 30.3384 89.6057 30.688C90.3601 31.0376 91.2157 31.2124 92.1725 31.2124C93.0557 31.2124 93.8653 31.0008 94.6013 30.5776C95.3557 30.1544 95.9537 29.5288 96.3953 28.7008C96.8369 27.8728 97.0577 26.8608 97.0577 25.6648V21.7456L97.9685 19.3168L99.7625 19.8964V25.858C99.7625 27.3116 99.4405 28.6272 98.7965 29.8048C98.1525 31.0008 97.2509 31.9484 96.0917 32.6476C94.9509 33.3468 93.6261 33.6964 92.1173 33.6964ZM92.1725 25.0576C93.1293 25.0576 93.9757 24.8368 94.7117 24.3952C95.4477 23.9536 96.0181 23.3464 96.4229 22.5736C96.8461 21.8008 97.0577 20.9084 97.0577 19.8964C97.0577 18.8844 96.8461 17.992 96.4229 17.2192C96.0181 16.428 95.4477 15.8116 94.7117 15.37C93.9757 14.9284 93.1293 14.7076 92.1725 14.7076C91.2157 14.7076 90.3693 14.9284 89.6333 15.37C88.8973 15.8116 88.3177 16.428 87.8945 17.2192C87.4713 17.992 87.2597 18.8844 87.2597 19.8964C87.2597 20.9084 87.4713 21.8008 87.8945 22.5736C88.3177 23.3464 88.8973 23.9536 89.6333 24.3952C90.3693 24.8368 91.2157 25.0576 92.1725 25.0576Z" fill="#7F6AA0"/>
<path d="M104.118 33.8896C103.713 33.8896 103.373 33.7516 103.097 33.4756C102.839 33.218 102.71 32.8868 102.71 32.482V19.8964C102.729 18.4428 103.069 17.1364 103.732 15.9772C104.394 14.818 105.296 13.9072 106.436 13.2448C107.577 12.564 108.865 12.2236 110.3 12.2236C111.754 12.2236 113.051 12.564 114.192 13.2448C115.333 13.9072 116.234 14.818 116.897 15.9772C117.578 17.1364 117.918 18.4428 117.918 19.8964C117.918 21.35 117.605 22.6564 116.98 23.8156C116.372 24.9564 115.535 25.8672 114.468 26.548C113.401 27.2104 112.196 27.5416 110.852 27.5416C109.767 27.5416 108.764 27.3208 107.844 26.8792C106.942 26.4192 106.17 25.8028 105.526 25.03V32.482C105.526 32.8868 105.397 33.218 105.139 33.4756C104.882 33.7516 104.541 33.8896 104.118 33.8896ZM110.3 25.0576C111.239 25.0576 112.076 24.8368 112.812 24.3952C113.548 23.9352 114.128 23.3188 114.551 22.546C114.992 21.7548 115.213 20.8716 115.213 19.8964C115.213 18.9028 114.992 18.0196 114.551 17.2468C114.128 16.4556 113.548 15.8392 112.812 15.3976C112.076 14.9376 111.239 14.7076 110.3 14.7076C109.38 14.7076 108.543 14.9376 107.789 15.3976C107.053 15.8392 106.473 16.4556 106.05 17.2468C105.627 18.0196 105.415 18.9028 105.415 19.8964C105.415 20.8716 105.627 21.7548 106.05 22.546C106.473 23.3188 107.053 23.9352 107.789 24.3952C108.543 24.8368 109.38 25.0576 110.3 25.0576Z" fill="#7F6AA0"/>
<path d="M122.558 27.4312C122.153 27.4312 121.813 27.3024 121.537 27.0448C121.279 26.7688 121.151 26.4284 121.151 26.0236V13.7416C121.151 13.3184 121.279 12.978 121.537 12.7204C121.813 12.4628 122.153 12.334 122.558 12.334C122.981 12.334 123.322 12.4628 123.579 12.7204C123.837 12.978 123.966 13.3184 123.966 13.7416V26.0236C123.966 26.4284 123.837 26.7688 123.579 27.0448C123.322 27.3024 122.981 27.4312 122.558 27.4312ZM122.558 9.87757C122.061 9.87757 121.629 9.70277 121.261 9.35317C120.911 8.98517 120.737 8.55277 120.737 8.05597C120.737 7.55917 120.911 7.13597 121.261 6.78637C121.629 6.41837 122.061 6.23438 122.558 6.23438C123.055 6.23438 123.478 6.41837 123.828 6.78637C124.196 7.13597 124.38 7.55917 124.38 8.05597C124.38 8.55277 124.196 8.98517 123.828 9.35317C123.478 9.70277 123.055 9.87757 122.558 9.87757Z" fill="#7F6AA0"/>
<path d="M129.645 27.4312C129.24 27.4312 128.899 27.3024 128.623 27.0448C128.366 26.7688 128.237 26.4284 128.237 26.0236V13.7416C128.237 13.3184 128.366 12.978 128.623 12.7204C128.899 12.4628 129.24 12.334 129.645 12.334C130.068 12.334 130.408 12.4628 130.666 12.7204C130.923 12.978 131.052 13.3184 131.052 13.7416V26.0236C131.052 26.4284 130.923 26.7688 130.666 27.0448C130.408 27.3024 130.068 27.4312 129.645 27.4312ZM129.645 9.87757C129.148 9.87757 128.715 9.70277 128.347 9.35317C127.998 8.98517 127.823 8.55277 127.823 8.05597C127.823 7.55917 127.998 7.13597 128.347 6.78637C128.715 6.41837 129.148 6.23438 129.645 6.23438C130.141 6.23438 130.565 6.41837 130.914 6.78637C131.282 7.13597 131.466 7.55917 131.466 8.05597C131.466 8.55277 131.282 8.98517 130.914 9.35317C130.565 9.70277 130.141 9.87757 129.645 9.87757Z" fill="#7F6AA0"/>
<path d="M142.141 27.5416C140.614 27.5416 139.252 27.2196 138.056 26.5756C136.878 25.9132 135.949 25.0116 135.268 23.8708C134.606 22.7116 134.275 21.3868 134.275 19.8964C134.275 18.3876 134.588 17.0628 135.213 15.922C135.857 14.7628 136.74 13.8612 137.863 13.2172C138.985 12.5548 140.273 12.2236 141.727 12.2236C143.162 12.2236 144.395 12.5456 145.425 13.1896C146.456 13.8152 147.238 14.6892 147.771 15.8116C148.323 16.9156 148.599 18.1944 148.599 19.648C148.599 19.9976 148.48 20.292 148.24 20.5312C148.001 20.752 147.698 20.8624 147.33 20.8624H136.207V18.6544H147.247L146.115 19.4272C146.097 18.5072 145.913 17.6884 145.563 16.9708C145.214 16.2348 144.717 15.6552 144.073 15.232C143.429 14.8088 142.647 14.5972 141.727 14.5972C140.678 14.5972 139.776 14.8272 139.022 15.2872C138.286 15.7472 137.725 16.382 137.338 17.1916C136.952 17.9828 136.759 18.8844 136.759 19.8964C136.759 20.9084 136.989 21.81 137.449 22.6012C137.909 23.3924 138.544 24.018 139.353 24.478C140.163 24.938 141.092 25.168 142.141 25.168C142.711 25.168 143.291 25.0668 143.88 24.8644C144.487 24.6436 144.974 24.3952 145.342 24.1192C145.618 23.9168 145.913 23.8156 146.226 23.8156C146.557 23.7972 146.842 23.8892 147.081 24.0916C147.394 24.3676 147.56 24.6712 147.578 25.0024C147.596 25.3336 147.449 25.6188 147.136 25.858C146.511 26.3548 145.729 26.7596 144.79 27.0724C143.87 27.3852 142.987 27.5416 142.141 27.5416Z" fill="#7F6AA0"/>
<defs>
<linearGradient id="paint0_linear_1142_10392" x1="29.0584" y1="6.75837" x2="-0.028579" y2="33.5081" gradientUnits="userSpaceOnUse">
<stop offset="0.163105" stop-color="#D76F70"/>
<stop offset="1" stop-color="#7F6AA0"/>
</linearGradient>
<linearGradient id="paint1_linear_1142_10392" x1="35.9985" y1="1.03125" x2="8.70141" y2="35.93" gradientUnits="userSpaceOnUse">
<stop stop-color="#DB6F6E"/>
<stop offset="1" stop-color="#F7BA29"/>
</linearGradient>
</defs>
</svg>
