<svg width="149" height="38" viewBox="0 0 149 38" fill="none" xmlns="http://www.w3.org/2000/svg">
<path d="M6.29906 7.25233C7.30872 6.88485 8.38087 6.71983 9.45429 6.7667C10.5277 6.81357 11.5814 7.0714 12.5552 7.52549C12.5992 7.54601 12.6423 7.56849 12.6843 7.59285L26.7899 15.77C29.5652 17.341 29.5159 21.1263 26.8008 22.6953L16.3751 28.8281C16.3616 28.836 16.348 28.8438 16.3343 28.8513V25.0551L25.1476 19.8708L25.1612 19.8629C25.4848 19.6767 25.5812 19.424 25.5815 19.2276C25.5818 19.0346 25.4905 18.7941 25.1748 18.6164L25.1566 18.606L11.1106 10.4634C10.5435 10.2085 9.93305 10.0634 9.31154 10.0363C8.66748 10.0082 8.02419 10.1072 7.4184 10.3277C6.81261 10.5482 6.25617 10.8858 5.78087 11.3214C5.30557 11.7569 4.92071 12.2818 4.64826 12.8661C4.62361 12.9189 4.5965 12.9698 4.56712 13.0188C3.74179 14.8588 3.27273 16.8927 3.27273 19.0313C3.27273 22.983 4.828 26.5712 7.36366 29.2178V33.5407C7.30735 33.5081 7.25238 33.4718 7.19906 33.4317C2.83074 30.1506 0 24.9213 0 19.0313C0 16.2918 0.62855 13.6982 1.71816 11.3808C1.75242 11.3079 1.79137 11.2388 1.83447 11.1735C2.27538 10.3235 2.86253 9.5566 3.56985 8.90846C4.36202 8.18257 5.28941 7.61982 6.29906 7.25233Z" fill="url(#paint0_linear_1142_8819)"/>
<path d="M17.9985 4.30398C16.5093 4.30398 15.0736 4.52452 13.7212 4.93428L10.1094 2.849C10.1881 2.80996 10.2676 2.77155 10.3477 2.73388C12.6716 1.64119 15.2661 1.03125 17.9985 1.03125C27.9397 1.03125 35.9985 9.09012 35.9985 19.0312C35.9985 28.8974 28.061 36.9094 18.2231 37.0299L18.2031 37.0301V37.0312C18.176 37.0312 18.1489 37.0311 18.1218 37.0308C18.0807 37.0311 18.0396 37.0312 17.9985 37.0312V37.0286C17.0207 37.0035 16.0551 36.7988 15.1503 36.424C14.1825 36.0231 13.3031 35.4355 12.5623 34.6948C11.8215 33.954 11.2339 33.0746 10.833 32.1067C10.4321 31.1389 10.2258 30.1016 10.2258 29.054V20.1026L13.4985 21.9921V29.054C13.4985 29.6718 13.6202 30.2835 13.8566 30.8543C14.0931 31.4251 14.4396 31.9437 14.8765 32.3806C15.3133 32.8174 15.8319 33.164 16.4027 33.4004C16.9509 33.6275 17.5369 33.7487 18.1298 33.7579L18.183 33.7574C26.2314 33.6588 32.7258 27.1033 32.7258 19.0312C32.7258 10.8976 26.1322 4.30398 17.9985 4.30398Z" fill="url(#paint1_linear_1142_8819)"/>
<circle cx="11.8619" cy="16.5767" r="2.04545" fill="#7F6AA0"/>
<path d="M63.102 27.4589C62.6972 27.4589 62.3568 27.3301 62.0808 27.0725C61.8232 26.7965 61.6944 26.4561 61.6944 26.0513V18.1577C61.6944 16.9985 61.4092 16.1429 60.8388 15.5909C60.2684 15.0205 59.5232 14.7353 58.6032 14.7353C57.6464 14.7353 56.8552 15.0665 56.2296 15.7289C55.6224 16.3913 55.3188 17.2377 55.3188 18.2681H53.028C53.028 17.0721 53.2856 16.0233 53.8008 15.1217C54.316 14.2017 55.0336 13.4841 55.9536 12.9689C56.892 12.4537 57.9592 12.1961 59.1552 12.1961C60.204 12.1961 61.1332 12.4261 61.9428 12.8861C62.7524 13.3461 63.378 14.0269 63.8196 14.9285C64.2796 15.8117 64.5096 16.8881 64.5096 18.1577V26.0513C64.5096 26.4561 64.3808 26.7965 64.1232 27.0725C63.8656 27.3301 63.5252 27.4589 63.102 27.4589ZM44.6928 27.4589C44.288 27.4589 43.9476 27.3301 43.6716 27.0725C43.414 26.7965 43.2852 26.4561 43.2852 26.0513V13.7693C43.2852 13.3461 43.414 13.0057 43.6716 12.7481C43.9476 12.4905 44.288 12.3617 44.6928 12.3617C45.116 12.3617 45.4564 12.4905 45.714 12.7481C45.9716 13.0057 46.1004 13.3461 46.1004 13.7693V26.0513C46.1004 26.4561 45.9716 26.7965 45.714 27.0725C45.4564 27.3301 45.116 27.4589 44.6928 27.4589ZM53.9112 27.4589C53.5064 27.4589 53.166 27.3301 52.89 27.0725C52.6324 26.7965 52.5036 26.4561 52.5036 26.0513V18.1577C52.5036 16.9985 52.2184 16.1429 51.648 15.5909C51.0776 15.0205 50.3324 14.7353 49.4124 14.7353C48.4556 14.7353 47.6644 15.0665 47.0388 15.7289C46.4132 16.3913 46.1004 17.2377 46.1004 18.2681H44.3616C44.3616 17.0721 44.6008 16.0233 45.0792 15.1217C45.5576 14.2017 46.22 13.4841 47.0664 12.9689C47.9128 12.4537 48.8788 12.1961 49.9644 12.1961C51.0132 12.1961 51.9424 12.4261 52.752 12.8861C53.5616 13.3461 54.1872 14.0269 54.6288 14.9285C55.0888 15.8117 55.3188 16.8881 55.3188 18.1577V26.0513C55.3188 26.4561 55.19 26.7965 54.9324 27.0725C54.6748 27.3301 54.3344 27.4589 53.9112 27.4589Z" fill="#7F6AA0"/>
<path d="M74.2379 27.5417C72.8947 27.5417 71.6895 27.2105 70.6223 26.5481C69.5551 25.8673 68.7087 24.9565 68.0831 23.8157C67.4759 22.6565 67.1723 21.3501 67.1723 19.8965C67.1723 18.4429 67.5035 17.1365 68.1659 15.9773C68.8467 14.8181 69.7575 13.9073 70.8983 13.2449C72.0575 12.5641 73.3547 12.2237 74.7899 12.2237C76.2251 12.2237 77.5131 12.5641 78.6539 13.2449C79.7947 13.9073 80.6963 14.8181 81.3587 15.9773C82.0395 17.1365 82.3799 18.4429 82.3799 19.8965H81.3035C81.3035 21.3501 80.9907 22.6565 80.3651 23.8157C79.7579 24.9565 78.9207 25.8673 77.8535 26.5481C76.7863 27.2105 75.5811 27.5417 74.2379 27.5417ZM74.7899 25.0577C75.7283 25.0577 76.5655 24.8369 77.3015 24.3953C78.0375 23.9353 78.6171 23.3189 79.0403 22.5461C79.4635 21.7549 79.6751 20.8717 79.6751 19.8965C79.6751 18.9029 79.4635 18.0197 79.0403 17.2469C78.6171 16.4557 78.0375 15.8393 77.3015 15.3977C76.5655 14.9377 75.7283 14.7077 74.7899 14.7077C73.8699 14.7077 73.0327 14.9377 72.2783 15.3977C71.5423 15.8393 70.9535 16.4557 70.5119 17.2469C70.0887 18.0197 69.8771 18.9029 69.8771 19.8965C69.8771 20.8717 70.0887 21.7549 70.5119 22.5461C70.9535 23.3189 71.5423 23.9353 72.2783 24.3953C73.0327 24.8369 73.8699 25.0577 74.7899 25.0577ZM80.9723 27.4589C80.5675 27.4589 80.2271 27.3301 79.9511 27.0725C79.6935 26.7965 79.5647 26.4561 79.5647 26.0513V21.8285L80.0891 18.9029L82.3799 19.8965V26.0513C82.3799 26.4561 82.2419 26.7965 81.9659 27.0725C81.7083 27.3301 81.3771 27.4589 80.9723 27.4589Z" fill="#7F6AA0"/>
<path d="M91.6205 27.5417C90.2405 27.5417 89.0169 27.2197 87.9497 26.5757C86.9009 25.9133 86.0729 25.0117 85.4657 23.8709C84.8585 22.7117 84.5549 21.3869 84.5549 19.8965C84.5549 18.3877 84.8769 17.0629 85.5209 15.9221C86.1833 14.7629 87.0849 13.8613 88.2257 13.2173C89.3665 12.5549 90.6821 12.2237 92.1725 12.2237C93.6445 12.2237 94.9509 12.5549 96.0917 13.2173C97.2325 13.8613 98.1249 14.7629 98.7689 15.9221C99.4313 17.0629 99.7625 18.3877 99.7625 19.8965H98.1341C98.1341 21.3869 97.8489 22.7117 97.2785 23.8709C96.7265 25.0117 95.9629 25.9133 94.9877 26.5757C94.0125 27.2197 92.8901 27.5417 91.6205 27.5417ZM92.1173 33.6965C90.8109 33.6965 89.5873 33.4389 88.4465 32.9237C87.3057 32.4085 86.3397 31.6541 85.5485 30.6605C85.3093 30.3477 85.2173 30.0257 85.2725 29.6945C85.3461 29.3633 85.5301 29.0965 85.8245 28.8941C86.1557 28.6733 86.4961 28.5997 86.8457 28.6733C87.2137 28.7469 87.5081 28.9309 87.7289 29.2253C88.2257 29.8509 88.8513 30.3385 89.6057 30.6881C90.3601 31.0377 91.2157 31.2125 92.1725 31.2125C93.0557 31.2125 93.8653 31.0009 94.6013 30.5777C95.3557 30.1545 95.9537 29.5289 96.3953 28.7009C96.8369 27.8729 97.0577 26.8609 97.0577 25.6649V21.7457L97.9685 19.3169L99.7625 19.8965V25.8581C99.7625 27.3117 99.4405 28.6273 98.7965 29.8049C98.1525 31.0009 97.2509 31.9485 96.0917 32.6477C94.9509 33.3469 93.6261 33.6965 92.1173 33.6965ZM92.1725 25.0577C93.1293 25.0577 93.9757 24.8369 94.7117 24.3953C95.4477 23.9537 96.0181 23.3465 96.4229 22.5737C96.8461 21.8009 97.0577 20.9085 97.0577 19.8965C97.0577 18.8845 96.8461 17.9921 96.4229 17.2193C96.0181 16.4281 95.4477 15.8117 94.7117 15.3701C93.9757 14.9285 93.1293 14.7077 92.1725 14.7077C91.2157 14.7077 90.3693 14.9285 89.6333 15.3701C88.8973 15.8117 88.3177 16.4281 87.8945 17.2193C87.4713 17.9921 87.2597 18.8845 87.2597 19.8965C87.2597 20.9085 87.4713 21.8009 87.8945 22.5737C88.3177 23.3465 88.8973 23.9537 89.6333 24.3953C90.3693 24.8369 91.2157 25.0577 92.1725 25.0577Z" fill="#7F6AA0"/>
<path d="M104.118 33.8897C103.713 33.8897 103.373 33.7517 103.097 33.4757C102.839 33.2181 102.71 32.8869 102.71 32.4821V19.8965C102.729 18.4429 103.069 17.1365 103.732 15.9773C104.394 14.8181 105.296 13.9073 106.436 13.2449C107.577 12.5641 108.865 12.2237 110.3 12.2237C111.754 12.2237 113.051 12.5641 114.192 13.2449C115.333 13.9073 116.234 14.8181 116.897 15.9773C117.578 17.1365 117.918 18.4429 117.918 19.8965C117.918 21.3501 117.605 22.6565 116.98 23.8157C116.372 24.9565 115.535 25.8673 114.468 26.5481C113.401 27.2105 112.196 27.5417 110.852 27.5417C109.767 27.5417 108.764 27.3209 107.844 26.8793C106.942 26.4193 106.17 25.8029 105.526 25.0301V32.4821C105.526 32.8869 105.397 33.2181 105.139 33.4757C104.882 33.7517 104.541 33.8897 104.118 33.8897ZM110.3 25.0577C111.239 25.0577 112.076 24.8369 112.812 24.3953C113.548 23.9353 114.128 23.3189 114.551 22.5461C114.992 21.7549 115.213 20.8717 115.213 19.8965C115.213 18.9029 114.992 18.0197 114.551 17.2469C114.128 16.4557 113.548 15.8393 112.812 15.3977C112.076 14.9377 111.239 14.7077 110.3 14.7077C109.38 14.7077 108.543 14.9377 107.789 15.3977C107.053 15.8393 106.473 16.4557 106.05 17.2469C105.627 18.0197 105.415 18.9029 105.415 19.8965C105.415 20.8717 105.627 21.7549 106.05 22.5461C106.473 23.3189 107.053 23.9353 107.789 24.3953C108.543 24.8369 109.38 25.0577 110.3 25.0577Z" fill="#7F6AA0"/>
<path d="M122.558 27.4313C122.153 27.4313 121.813 27.3025 121.537 27.0449C121.279 26.7689 121.151 26.4285 121.151 26.0237V13.7417C121.151 13.3185 121.279 12.9781 121.537 12.7205C121.813 12.4629 122.153 12.3341 122.558 12.3341C122.981 12.3341 123.322 12.4629 123.579 12.7205C123.837 12.9781 123.966 13.3185 123.966 13.7417V26.0237C123.966 26.4285 123.837 26.7689 123.579 27.0449C123.322 27.3025 122.981 27.4313 122.558 27.4313ZM122.558 9.8777C122.061 9.8777 121.629 9.7029 121.261 9.3533C120.911 8.9853 120.737 8.5529 120.737 8.0561C120.737 7.5593 120.911 7.1361 121.261 6.7865C121.629 6.4185 122.061 6.2345 122.558 6.2345C123.055 6.2345 123.478 6.4185 123.828 6.7865C124.196 7.1361 124.38 7.5593 124.38 8.0561C124.38 8.5529 124.196 8.9853 123.828 9.3533C123.478 9.7029 123.055 9.8777 122.558 9.8777Z" fill="#7F6AA0"/>
<path d="M129.645 27.4313C129.24 27.4313 128.899 27.3025 128.623 27.0449C128.366 26.7689 128.237 26.4285 128.237 26.0237V13.7417C128.237 13.3185 128.366 12.9781 128.623 12.7205C128.899 12.4629 129.24 12.3341 129.645 12.3341C130.068 12.3341 130.408 12.4629 130.666 12.7205C130.923 12.9781 131.052 13.3185 131.052 13.7417V26.0237C131.052 26.4285 130.923 26.7689 130.666 27.0449C130.408 27.3025 130.068 27.4313 129.645 27.4313ZM129.645 9.8777C129.148 9.8777 128.715 9.7029 128.347 9.3533C127.998 8.9853 127.823 8.5529 127.823 8.0561C127.823 7.5593 127.998 7.1361 128.347 6.7865C128.715 6.4185 129.148 6.2345 129.645 6.2345C130.141 6.2345 130.565 6.4185 130.914 6.7865C131.282 7.1361 131.466 7.5593 131.466 8.0561C131.466 8.5529 131.282 8.9853 130.914 9.3533C130.565 9.7029 130.141 9.8777 129.645 9.8777Z" fill="#7F6AA0"/>
<path d="M142.141 27.5417C140.614 27.5417 139.252 27.2197 138.056 26.5757C136.878 25.9133 135.949 25.0117 135.268 23.8709C134.606 22.7117 134.275 21.3869 134.275 19.8965C134.275 18.3877 134.588 17.0629 135.213 15.9221C135.857 14.7629 136.74 13.8613 137.863 13.2173C138.985 12.5549 140.273 12.2237 141.727 12.2237C143.162 12.2237 144.395 12.5457 145.425 13.1897C146.456 13.8153 147.238 14.6893 147.771 15.8117C148.323 16.9157 148.599 18.1945 148.599 19.6481C148.599 19.9977 148.48 20.2921 148.24 20.5313C148.001 20.7521 147.698 20.8625 147.33 20.8625H136.207V18.6545H147.247L146.115 19.4273C146.097 18.5073 145.913 17.6885 145.563 16.9709C145.214 16.2349 144.717 15.6553 144.073 15.2321C143.429 14.8089 142.647 14.5973 141.727 14.5973C140.678 14.5973 139.776 14.8273 139.022 15.2873C138.286 15.7473 137.725 16.3821 137.338 17.1917C136.952 17.9829 136.759 18.8845 136.759 19.8965C136.759 20.9085 136.989 21.8101 137.449 22.6013C137.909 23.3925 138.544 24.0181 139.353 24.4781C140.163 24.9381 141.092 25.1681 142.141 25.1681C142.711 25.1681 143.291 25.0669 143.88 24.8645C144.487 24.6437 144.974 24.3953 145.342 24.1193C145.618 23.9169 145.913 23.8157 146.226 23.8157C146.557 23.7973 146.842 23.8893 147.081 24.0917C147.394 24.3677 147.56 24.6713 147.578 25.0025C147.596 25.3337 147.449 25.6189 147.136 25.8581C146.511 26.3549 145.729 26.7597 144.79 27.0725C143.87 27.3853 142.987 27.5417 142.141 27.5417Z" fill="#7F6AA0"/>
<defs>
<linearGradient id="paint0_linear_1142_8819" x1="29.0584" y1="6.75849" x2="-0.028579" y2="33.5083" gradientUnits="userSpaceOnUse">
<stop offset="0.163105" stop-color="#D76F70"/>
<stop offset="1" stop-color="#7F6AA0"/>
</linearGradient>
<linearGradient id="paint1_linear_1142_8819" x1="35.9985" y1="1.03125" x2="8.70141" y2="35.93" gradientUnits="userSpaceOnUse">
<stop stop-color="#DB6F6E"/>
<stop offset="1" stop-color="#F7BA29"/>
</linearGradient>
</defs>
</svg>
