<svg width="150" height="48" viewBox="0 0 150 48" fill="none" xmlns="http://www.w3.org/2000/svg">
<rect x="0.5" width="149" height="48" rx="8" fill="#7F6AA0"/>
<path d="M19.5021 33C19.5021 32.4477 19.9498 32 20.5021 32H28.5021C29.0544 32 29.5021 32.4477 29.5021 33C29.5021 33.5523 29.0544 34 28.5021 34H20.5021C19.9498 34 19.5021 33.5523 19.5021 33ZM21.5021 37C21.5021 36.4477 21.9498 36 22.5021 36H26.5021C27.0544 36 27.5021 36.4477 27.5021 37C27.5021 37.5523 27.0544 38 26.5021 38H22.5021C21.9498 38 21.5021 37.5523 21.5021 37ZM24.5021 10C21.85 10 19.3064 11.0536 17.4311 12.9289C15.5557 14.8043 14.5021 17.3478 14.5021 20C14.4345 21.4533 14.7129 22.902 15.3144 24.2267C15.9159 25.5514 16.8234 26.7144 17.9621 27.62C18.567 28.1825 19.0035 28.5987 19.2541 29.0433C19.5252 29.5245 19.9498 30 20.5021 30C21.0544 30 21.5182 29.545 21.3837 29.0093C21.0699 27.7594 20.1813 26.9367 19.3121 26.14C18.3775 25.4243 17.6326 24.4903 17.1427 23.4198C16.6528 22.3494 16.4329 21.1752 16.5021 20C16.5021 17.8783 17.345 15.8434 18.8453 14.3431C20.3456 12.8429 22.3804 12 24.5021 12C26.6239 12 28.6587 12.8429 30.159 14.3431C31.6593 15.8434 32.5021 17.8783 32.5021 20C32.5702 21.176 32.3487 22.3508 31.8571 23.4213C31.3654 24.4918 30.6186 25.4253 29.6821 26.14C28.8195 26.9462 27.9309 27.7523 27.6189 29.0091C27.4858 29.5451 27.9498 30 28.5021 30C29.0544 30 29.4783 29.5247 29.7475 29.0424C29.9961 28.597 30.4314 28.1784 31.0421 27.61C32.1801 26.706 33.0871 25.5447 33.6886 24.2217C34.2901 22.8987 34.569 21.4518 34.5021 20C34.5021 18.6868 34.2435 17.3864 33.7409 16.1732C33.2384 14.9599 32.5018 13.8575 31.5732 12.9289C30.6446 12.0003 29.5422 11.2638 28.329 10.7612C27.1157 10.2587 25.8153 10 24.5021 10Z" fill="white"/>
<path d="M50.492 34V16.12H52.844V34H50.492ZM61.9561 34.288C60.7401 34.288 59.6441 33.992 58.6681 33.4C57.7081 32.808 56.9481 32 56.3881 30.976C55.8281 29.952 55.5481 28.808 55.5481 27.544C55.5481 26.248 55.8281 25.096 56.3881 24.088C56.9481 23.064 57.7081 22.256 58.6681 21.664C59.6441 21.072 60.7401 20.776 61.9561 20.776C63.0281 20.776 63.9801 21.008 64.8121 21.472C65.6441 21.92 66.3001 22.528 66.7801 23.296L66.4201 23.848V15.832H68.6761V34H66.4921V31.24L66.7801 31.624C66.3321 32.472 65.6761 33.128 64.8121 33.592C63.9641 34.056 63.0121 34.288 61.9561 34.288ZM62.1481 32.128C62.9641 32.128 63.6921 31.928 64.3321 31.528C64.9721 31.128 65.4761 30.584 65.8441 29.896C66.2281 29.192 66.4201 28.408 66.4201 27.544C66.4201 26.664 66.2281 25.88 65.8441 25.192C65.4761 24.488 64.9721 23.936 64.3321 23.536C63.6921 23.136 62.9641 22.936 62.1481 22.936C61.3481 22.936 60.6201 23.144 59.9641 23.56C59.3241 23.96 58.8201 24.504 58.4521 25.192C58.0841 25.864 57.9001 26.648 57.9001 27.544C57.9001 28.408 58.0841 29.192 58.4521 29.896C58.8201 30.584 59.3241 31.128 59.9641 31.528C60.6041 31.928 61.3321 32.128 62.1481 32.128ZM77.6028 34.288C76.3548 34.288 75.2428 33.992 74.2668 33.4C73.2908 32.808 72.5228 32 71.9628 30.976C71.4028 29.936 71.1228 28.776 71.1228 27.496C71.1228 26.2 71.3948 25.048 71.9388 24.04C72.4988 23.032 73.2508 22.24 74.1948 21.664C75.1548 21.072 76.2268 20.776 77.4108 20.776C78.3708 20.776 79.2188 20.952 79.9548 21.304C80.7068 21.64 81.3388 22.104 81.8508 22.696C82.3788 23.272 82.7788 23.936 83.0508 24.688C83.3388 25.424 83.4828 26.192 83.4828 26.992C83.4828 27.168 83.4668 27.368 83.4348 27.592C83.4188 27.8 83.3948 28 83.3628 28.192H72.7548V26.272H82.0668L81.0108 27.136C81.1548 26.304 81.0748 25.56 80.7708 24.904C80.4668 24.248 80.0188 23.728 79.4268 23.344C78.8348 22.96 78.1628 22.768 77.4108 22.768C76.6588 22.768 75.9708 22.96 75.3468 23.344C74.7228 23.728 74.2348 24.28 73.8828 25C73.5468 25.704 73.4108 26.544 73.4748 27.52C73.4108 28.464 73.5548 29.296 73.9068 30.016C74.2748 30.72 74.7868 31.272 75.4428 31.672C76.1148 32.056 76.8428 32.248 77.6268 32.248C78.4908 32.248 79.2188 32.048 79.8108 31.648C80.4028 31.248 80.8828 30.736 81.2508 30.112L83.1228 31.072C82.8668 31.664 82.4668 32.208 81.9228 32.704C81.3948 33.184 80.7628 33.568 80.0268 33.856C79.3068 34.144 78.4988 34.288 77.6028 34.288ZM89.5409 34.288C88.6929 34.288 87.9409 34.136 87.2849 33.832C86.6449 33.512 86.1409 33.08 85.7729 32.536C85.4049 31.976 85.2209 31.336 85.2209 30.616C85.2209 29.928 85.3649 29.312 85.6529 28.768C85.9569 28.208 86.4209 27.736 87.0449 27.352C87.6849 26.968 88.4849 26.696 89.4449 26.536L94.2449 25.744V27.616L89.9489 28.336C89.1169 28.48 88.5089 28.744 88.1249 29.128C87.7569 29.512 87.5729 29.984 87.5729 30.544C87.5729 31.072 87.7809 31.512 88.1969 31.864C88.6289 32.216 89.1649 32.392 89.8049 32.392C90.6209 32.392 91.3249 32.224 91.9169 31.888C92.5249 31.536 92.9969 31.064 93.3329 30.472C93.6849 29.88 93.8609 29.224 93.8609 28.504V25.216C93.8609 24.512 93.5969 23.944 93.0689 23.512C92.5569 23.064 91.8769 22.84 91.0289 22.84C90.2929 22.84 89.6369 23.032 89.0609 23.416C88.5009 23.784 88.0849 24.28 87.8129 24.904L85.8689 23.896C86.1089 23.304 86.4929 22.776 87.0209 22.312C87.5489 21.832 88.1649 21.456 88.8689 21.184C89.5729 20.912 90.3089 20.776 91.0769 20.776C92.0689 20.776 92.9409 20.968 93.6929 21.352C94.4449 21.72 95.0289 22.24 95.4449 22.912C95.8769 23.568 96.0929 24.336 96.0929 25.216V34H93.9089V31.552L94.3169 31.696C94.0449 32.208 93.6769 32.656 93.2129 33.04C92.7489 33.424 92.2049 33.728 91.5809 33.952C90.9569 34.176 90.2769 34.288 89.5409 34.288ZM104.095 34.144C102.831 34.144 101.855 33.784 101.167 33.064C100.495 32.344 100.159 31.328 100.159 30.016V23.2H97.8073V21.064H98.2873C98.8633 21.064 99.3193 20.888 99.6553 20.536C99.9913 20.184 100.159 19.72 100.159 19.144V18.088H102.391V21.064H105.295V23.2H102.391V29.944C102.391 30.376 102.455 30.752 102.583 31.072C102.727 31.392 102.959 31.648 103.279 31.84C103.599 32.016 104.023 32.104 104.551 32.104C104.663 32.104 104.799 32.096 104.959 32.08C105.135 32.064 105.295 32.048 105.439 32.032V34C105.231 34.048 104.999 34.08 104.743 34.096C104.487 34.128 104.271 34.144 104.095 34.144ZM107.875 34V21.064H110.107V34H107.875ZM107.875 19V16.12H110.107V19H107.875ZM119.234 34.288C117.986 34.288 116.858 34 115.85 33.424C114.842 32.832 114.042 32.024 113.45 31C112.858 29.976 112.562 28.816 112.562 27.52C112.562 26.224 112.85 25.072 113.426 24.064C114.018 23.056 114.818 22.256 115.826 21.664C116.834 21.072 117.97 20.776 119.234 20.776C120.482 20.776 121.61 21.072 122.618 21.664C123.626 22.24 124.418 23.032 124.994 24.04C125.586 25.048 125.882 26.208 125.882 27.52C125.882 28.832 125.578 30 124.97 31.024C124.362 32.032 123.554 32.832 122.546 33.424C121.554 34 120.45 34.288 119.234 34.288ZM119.234 32.128C120.034 32.128 120.754 31.928 121.394 31.528C122.05 31.128 122.562 30.576 122.93 29.872C123.314 29.168 123.506 28.384 123.506 27.52C123.506 26.64 123.314 25.864 122.93 25.192C122.562 24.504 122.05 23.96 121.394 23.56C120.754 23.144 120.034 22.936 119.234 22.936C118.418 22.936 117.682 23.144 117.026 23.56C116.386 23.96 115.874 24.504 115.49 25.192C115.106 25.864 114.914 26.64 114.914 27.52C114.914 28.384 115.106 29.168 115.49 29.872C115.874 30.576 116.386 31.128 117.026 31.528C117.682 31.928 118.418 32.128 119.234 32.128ZM128.313 34V21.064H130.497V23.584L130.137 23.368C130.457 22.552 130.969 21.92 131.673 21.472C132.393 21.008 133.233 20.776 134.193 20.776C135.121 20.776 135.945 20.984 136.665 21.4C137.401 21.816 137.977 22.392 138.393 23.128C138.825 23.864 139.041 24.696 139.041 25.624V34H136.785V26.344C136.785 25.624 136.657 25.016 136.401 24.52C136.145 24.024 135.777 23.64 135.297 23.368C134.833 23.08 134.297 22.936 133.689 22.936C133.081 22.936 132.537 23.08 132.057 23.368C131.593 23.64 131.225 24.032 130.953 24.544C130.681 25.04 130.545 25.64 130.545 26.344V34H128.313Z" fill="white"/>
</svg>
