<svg width="33" height="32" viewBox="0 0 33 32" fill="none" xmlns="http://www.w3.org/2000/svg">
<path d="M29.8307 15.8534V17.0401C29.8307 21.7867 28.6441 22.9601 23.9107 22.9601H9.08406C4.35073 22.9601 3.16406 21.7734 3.16406 17.0401V8.58675C3.16406 3.85341 4.35073 2.66675 9.08406 2.66675H11.1641" stroke="#AAAAAA" stroke-width="2" stroke-linecap="round" stroke-linejoin="round"/>
<path d="M16.5 22.96V29.3333" stroke="#AAAAAA" stroke-width="2" stroke-linecap="round" stroke-linejoin="round"/>
<path d="M3.16406 17.3333H29.8307" stroke="#AAAAAA" stroke-width="2" stroke-linecap="round" stroke-linejoin="round"/>
<path d="M10.5 29.3333H22.5" stroke="#AAAAAA" stroke-width="2" stroke-linecap="round" stroke-linejoin="round"/>
<path d="M24.3156 12.4933H17.969C16.129 12.4933 15.5156 11.2666 15.5156 10.0399V5.3466C15.5156 3.87993 16.7156 2.67993 18.1823 2.67993H24.3156C25.6756 2.67993 26.769 3.77326 26.769 5.13326V10.0399C26.769 11.3999 25.6756 12.4933 24.3156 12.4933Z" stroke="#AAAAAA" stroke-width="2" stroke-linecap="round" stroke-linejoin="round"/>
<path d="M28.379 10.5599L26.7656 9.42655V5.74655L28.379 4.61322C29.179 4.06655 29.8323 4.39989 29.8323 5.37322V9.81322C29.8323 10.7866 29.179 11.1199 28.379 10.5599Z" stroke="#AAAAAA" stroke-width="2" stroke-linecap="round" stroke-linejoin="round"/>
</svg>
