<svg width="33" height="32" viewBox="0 0 33 32" fill="none" xmlns="http://www.w3.org/2000/svg">
<path d="M12.4971 27.2268H17.2041C21.4041 27.2268 22.8174 25.8268 22.8174 21.6134V10.3868C22.8174 6.17344 21.4174 4.77344 17.2041 4.77344H8.7774C4.56406 4.77344 3.16406 6.17344 3.16406 10.3868V20.0001" stroke="#AAAAAA" stroke-width="2" stroke-linecap="round" stroke-linejoin="round"/>
<path d="M26.527 22.7999L22.8203 20.1999V11.7866L26.527 9.1866C28.3403 7.91993 29.8336 8.69326 29.8336 10.9199V21.0799C29.8336 23.3066 28.3403 24.0799 26.527 22.7999Z" stroke="#AAAAAA" stroke-width="2" stroke-linecap="round" stroke-linejoin="round"/>
<path d="M8.01855 20.7849L3.17855 25.6249C2.99188 25.8116 2.80522 26.1716 2.77855 26.4382L2.51188 28.2916C2.41855 28.9582 2.88522 29.4249 3.55188 29.3316L5.40522 29.0649C5.65855 29.0249 6.03188 28.8516 6.21855 28.6649L11.0586 23.8249C11.8986 22.9849 12.2852 22.0249 11.0586 20.7982C9.81855 19.5449 8.85855 19.9449 8.01855 20.7849Z" stroke="#AAAAAA" stroke-width="2" stroke-miterlimit="10" stroke-linecap="round" stroke-linejoin="round"/>
<path d="M7.32812 21.478C7.74146 22.9447 8.88812 24.0914 10.3548 24.5047" stroke="#AAAAAA" stroke-width="2" stroke-miterlimit="10" stroke-linecap="round" stroke-linejoin="round"/>
</svg>
