<svg width="33" height="32" viewBox="0 0 33 32" fill="none" xmlns="http://www.w3.org/2000/svg">
<path d="M16.5 25.3334C20.9133 25.3334 24.5 21.7467 24.5 17.3334V10.6667C24.5 6.25341 20.9133 2.66675 16.5 2.66675C12.0867 2.66675 8.5 6.25341 8.5 10.6667V17.3334C8.5 21.7467 12.0867 25.3334 16.5 25.3334Z" stroke="#AAAAAA" stroke-width="2" stroke-linecap="round" stroke-linejoin="round"/>
<path d="M4.5 14.6667V17.3334C4.5 23.9601 9.87333 29.3334 16.5 29.3334C23.1267 29.3334 28.5 23.9601 28.5 17.3334V14.6667" stroke="#AAAAAA" stroke-width="2" stroke-linecap="round" stroke-linejoin="round"/>
<path d="M12.6484 9.97324C15.0218 9.10658 17.6084 9.10658 19.9818 9.97324" stroke="#AAAAAA" stroke-width="2" stroke-linecap="round" stroke-linejoin="round"/>
<path d="M13.875 13.9733C15.475 13.5333 17.1683 13.5333 18.7683 13.9733" stroke="#AAAAAA" stroke-width="2" stroke-linecap="round" stroke-linejoin="round"/>
</svg>
