<svg width="106" height="28" viewBox="0 0 106 28" fill="none" xmlns="http://www.w3.org/2000/svg">
<path d="M20.102 21.4589C19.6972 21.4589 19.3568 21.3301 19.0808 21.0725C18.8232 20.7965 18.6944 20.4561 18.6944 20.0513V12.1577C18.6944 10.9985 18.4092 10.1429 17.8388 9.5909C17.2684 9.0205 16.5232 8.7353 15.6032 8.7353C14.6464 8.7353 13.8552 9.0665 13.2296 9.7289C12.6224 10.3913 12.3188 11.2377 12.3188 12.2681H10.028C10.028 11.0721 10.2856 10.0233 10.8008 9.1217C11.316 8.2017 12.0336 7.4841 12.9536 6.9689C13.892 6.4537 14.9592 6.1961 16.1552 6.1961C17.204 6.1961 18.1332 6.4261 18.9428 6.8861C19.7524 7.3461 20.378 8.0269 20.8196 8.9285C21.2796 9.8117 21.5096 10.8881 21.5096 12.1577V20.0513C21.5096 20.4561 21.3808 20.7965 21.1232 21.0725C20.8656 21.3301 20.5252 21.4589 20.102 21.4589ZM1.69276 21.4589C1.28796 21.4589 0.947556 21.3301 0.671556 21.0725C0.413956 20.7965 0.285156 20.4561 0.285156 20.0513V7.7693C0.285156 7.3461 0.413956 7.0057 0.671556 6.7481C0.947556 6.4905 1.28796 6.3617 1.69276 6.3617C2.11596 6.3617 2.45636 6.4905 2.71396 6.7481C2.97156 7.0057 3.10036 7.3461 3.10036 7.7693V20.0513C3.10036 20.4561 2.97156 20.7965 2.71396 21.0725C2.45636 21.3301 2.11596 21.4589 1.69276 21.4589ZM10.9112 21.4589C10.5064 21.4589 10.166 21.3301 9.88996 21.0725C9.63236 20.7965 9.50356 20.4561 9.50356 20.0513V12.1577C9.50356 10.9985 9.21836 10.1429 8.64796 9.5909C8.07756 9.0205 7.33236 8.7353 6.41236 8.7353C5.45556 8.7353 4.66436 9.0665 4.03876 9.7289C3.41316 10.3913 3.10036 11.2377 3.10036 12.2681H1.36156C1.36156 11.0721 1.60076 10.0233 2.07916 9.1217C2.55756 8.2017 3.21996 7.4841 4.06636 6.9689C4.91276 6.4537 5.87876 6.1961 6.96436 6.1961C8.01316 6.1961 8.94236 6.4261 9.75196 6.8861C10.5616 7.3461 11.1872 8.0269 11.6288 8.9285C12.0888 9.8117 12.3188 10.8881 12.3188 12.1577V20.0513C12.3188 20.4561 12.19 20.7965 11.9324 21.0725C11.6748 21.3301 11.3344 21.4589 10.9112 21.4589Z" fill="#7F6AA0"/>
<path d="M31.2379 21.5417C29.8947 21.5417 28.6895 21.2105 27.6223 20.5481C26.5551 19.8673 25.7087 18.9565 25.0831 17.8157C24.4759 16.6565 24.1723 15.3501 24.1723 13.8965C24.1723 12.4429 24.5035 11.1365 25.1659 9.9773C25.8467 8.8181 26.7575 7.9073 27.8983 7.2449C29.0575 6.5641 30.3547 6.2237 31.7899 6.2237C33.2251 6.2237 34.5131 6.5641 35.6539 7.2449C36.7947 7.9073 37.6963 8.8181 38.3587 9.9773C39.0395 11.1365 39.3799 12.4429 39.3799 13.8965H38.3035C38.3035 15.3501 37.9907 16.6565 37.3651 17.8157C36.7579 18.9565 35.9207 19.8673 34.8535 20.5481C33.7863 21.2105 32.5811 21.5417 31.2379 21.5417ZM31.7899 19.0577C32.7283 19.0577 33.5655 18.8369 34.3015 18.3953C35.0375 17.9353 35.6171 17.3189 36.0403 16.5461C36.4635 15.7549 36.6751 14.8717 36.6751 13.8965C36.6751 12.9029 36.4635 12.0197 36.0403 11.2469C35.6171 10.4557 35.0375 9.8393 34.3015 9.3977C33.5655 8.9377 32.7283 8.7077 31.7899 8.7077C30.8699 8.7077 30.0327 8.9377 29.2783 9.3977C28.5423 9.8393 27.9535 10.4557 27.5119 11.2469C27.0887 12.0197 26.8771 12.9029 26.8771 13.8965C26.8771 14.8717 27.0887 15.7549 27.5119 16.5461C27.9535 17.3189 28.5423 17.9353 29.2783 18.3953C30.0327 18.8369 30.8699 19.0577 31.7899 19.0577ZM37.9723 21.4589C37.5675 21.4589 37.2271 21.3301 36.9511 21.0725C36.6935 20.7965 36.5647 20.4561 36.5647 20.0513V15.8285L37.0891 12.9029L39.3799 13.8965V20.0513C39.3799 20.4561 39.2419 20.7965 38.9659 21.0725C38.7083 21.3301 38.3771 21.4589 37.9723 21.4589Z" fill="#7F6AA0"/>
<path d="M48.6205 21.5417C47.2405 21.5417 46.0169 21.2197 44.9497 20.5757C43.9009 19.9133 43.0729 19.0117 42.4657 17.8709C41.8585 16.7117 41.5549 15.3869 41.5549 13.8965C41.5549 12.3877 41.8769 11.0629 42.5209 9.9221C43.1833 8.7629 44.0849 7.8613 45.2257 7.2173C46.3665 6.5549 47.6821 6.2237 49.1725 6.2237C50.6445 6.2237 51.9509 6.5549 53.0917 7.2173C54.2325 7.8613 55.1249 8.7629 55.7689 9.9221C56.4313 11.0629 56.7625 12.3877 56.7625 13.8965H55.1341C55.1341 15.3869 54.8489 16.7117 54.2785 17.8709C53.7265 19.0117 52.9629 19.9133 51.9877 20.5757C51.0125 21.2197 49.8901 21.5417 48.6205 21.5417ZM49.1173 27.6965C47.8109 27.6965 46.5873 27.4389 45.4465 26.9237C44.3057 26.4085 43.3397 25.6541 42.5485 24.6605C42.3093 24.3477 42.2173 24.0257 42.2725 23.6945C42.3461 23.3633 42.5301 23.0965 42.8245 22.8941C43.1557 22.6733 43.4961 22.5997 43.8457 22.6733C44.2137 22.7469 44.5081 22.9309 44.7289 23.2253C45.2257 23.8509 45.8513 24.3385 46.6057 24.6881C47.3601 25.0377 48.2157 25.2125 49.1725 25.2125C50.0557 25.2125 50.8653 25.0009 51.6013 24.5777C52.3557 24.1545 52.9537 23.5289 53.3953 22.7009C53.8369 21.8729 54.0577 20.8609 54.0577 19.6649V15.7457L54.9685 13.3169L56.7625 13.8965V19.8581C56.7625 21.3117 56.4405 22.6273 55.7965 23.8049C55.1525 25.0009 54.2509 25.9485 53.0917 26.6477C51.9509 27.3469 50.6261 27.6965 49.1173 27.6965ZM49.1725 19.0577C50.1293 19.0577 50.9757 18.8369 51.7117 18.3953C52.4477 17.9537 53.0181 17.3465 53.4229 16.5737C53.8461 15.8009 54.0577 14.9085 54.0577 13.8965C54.0577 12.8845 53.8461 11.9921 53.4229 11.2193C53.0181 10.4281 52.4477 9.8117 51.7117 9.3701C50.9757 8.9285 50.1293 8.7077 49.1725 8.7077C48.2157 8.7077 47.3693 8.9285 46.6333 9.3701C45.8973 9.8117 45.3177 10.4281 44.8945 11.2193C44.4713 11.9921 44.2597 12.8845 44.2597 13.8965C44.2597 14.9085 44.4713 15.8009 44.8945 16.5737C45.3177 17.3465 45.8973 17.9537 46.6333 18.3953C47.3693 18.8369 48.2157 19.0577 49.1725 19.0577Z" fill="#7F6AA0"/>
<path d="M61.1179 27.8897C60.7131 27.8897 60.3727 27.7517 60.0967 27.4757C59.8391 27.2181 59.7103 26.8869 59.7103 26.4821V13.8965C59.7287 12.4429 60.0691 11.1365 60.7315 9.9773C61.3939 8.8181 62.2955 7.9073 63.4363 7.2449C64.5771 6.5641 65.8651 6.2237 67.3003 6.2237C68.7539 6.2237 70.0511 6.5641 71.1919 7.2449C72.3327 7.9073 73.2343 8.8181 73.8967 9.9773C74.5775 11.1365 74.9179 12.4429 74.9179 13.8965C74.9179 15.3501 74.6051 16.6565 73.9795 17.8157C73.3723 18.9565 72.5351 19.8673 71.4679 20.5481C70.4007 21.2105 69.1955 21.5417 67.8523 21.5417C66.7667 21.5417 65.7639 21.3209 64.8439 20.8793C63.9423 20.4193 63.1695 19.8029 62.5255 19.0301V26.4821C62.5255 26.8869 62.3967 27.2181 62.1391 27.4757C61.8815 27.7517 61.5411 27.8897 61.1179 27.8897ZM67.3003 19.0577C68.2387 19.0577 69.0759 18.8369 69.8119 18.3953C70.5479 17.9353 71.1275 17.3189 71.5507 16.5461C71.9923 15.7549 72.2131 14.8717 72.2131 13.8965C72.2131 12.9029 71.9923 12.0197 71.5507 11.2469C71.1275 10.4557 70.5479 9.8393 69.8119 9.3977C69.0759 8.9377 68.2387 8.7077 67.3003 8.7077C66.3803 8.7077 65.5431 8.9377 64.7887 9.3977C64.0527 9.8393 63.4731 10.4557 63.0499 11.2469C62.6267 12.0197 62.4151 12.9029 62.4151 13.8965C62.4151 14.8717 62.6267 15.7549 63.0499 16.5461C63.4731 17.3189 64.0527 17.9353 64.7887 18.3953C65.5431 18.8369 66.3803 19.0577 67.3003 19.0577Z" fill="#7F6AA0"/>
<path d="M79.5582 21.4313C79.1534 21.4313 78.813 21.3025 78.537 21.0449C78.2794 20.7689 78.1506 20.4285 78.1506 20.0237V7.7417C78.1506 7.3185 78.2794 6.9781 78.537 6.7205C78.813 6.4629 79.1534 6.3341 79.5582 6.3341C79.9814 6.3341 80.3218 6.4629 80.5794 6.7205C80.837 6.9781 80.9658 7.3185 80.9658 7.7417V20.0237C80.9658 20.4285 80.837 20.7689 80.5794 21.0449C80.3218 21.3025 79.9814 21.4313 79.5582 21.4313ZM79.5582 3.8777C79.0614 3.8777 78.629 3.7029 78.261 3.3533C77.9114 2.9853 77.7366 2.5529 77.7366 2.0561C77.7366 1.5593 77.9114 1.1361 78.261 0.786497C78.629 0.418497 79.0614 0.234497 79.5582 0.234497C80.055 0.234497 80.4782 0.418497 80.8278 0.786497C81.1958 1.1361 81.3798 1.5593 81.3798 2.0561C81.3798 2.5529 81.1958 2.9853 80.8278 3.3533C80.4782 3.7029 80.055 3.8777 79.5582 3.8777Z" fill="#7F6AA0"/>
<path d="M86.6447 21.4313C86.2399 21.4313 85.8995 21.3025 85.6235 21.0449C85.3659 20.7689 85.2371 20.4285 85.2371 20.0237V7.7417C85.2371 7.3185 85.3659 6.9781 85.6235 6.7205C85.8995 6.4629 86.2399 6.3341 86.6447 6.3341C87.0679 6.3341 87.4083 6.4629 87.6659 6.7205C87.9235 6.9781 88.0523 7.3185 88.0523 7.7417V20.0237C88.0523 20.4285 87.9235 20.7689 87.6659 21.0449C87.4083 21.3025 87.0679 21.4313 86.6447 21.4313ZM86.6447 3.8777C86.1479 3.8777 85.7155 3.7029 85.3475 3.3533C84.9979 2.9853 84.8231 2.5529 84.8231 2.0561C84.8231 1.5593 84.9979 1.1361 85.3475 0.786497C85.7155 0.418497 86.1479 0.234497 86.6447 0.234497C87.1415 0.234497 87.5647 0.418497 87.9143 0.786497C88.2823 1.1361 88.4663 1.5593 88.4663 2.0561C88.4663 2.5529 88.2823 2.9853 87.9143 3.3533C87.5647 3.7029 87.1415 3.8777 86.6447 3.8777Z" fill="#7F6AA0"/>
<path d="M99.1408 21.5417C97.6136 21.5417 96.252 21.2197 95.056 20.5757C93.8784 19.9133 92.9492 19.0117 92.2684 17.8709C91.606 16.7117 91.2748 15.3869 91.2748 13.8965C91.2748 12.3877 91.5876 11.0629 92.2132 9.9221C92.8572 8.7629 93.7404 7.8613 94.8628 7.2173C95.9852 6.5549 97.2732 6.2237 98.7268 6.2237C100.162 6.2237 101.395 6.5457 102.425 7.1897C103.456 7.8153 104.238 8.6893 104.771 9.8117C105.323 10.9157 105.599 12.1945 105.599 13.6481C105.599 13.9977 105.48 14.2921 105.24 14.5313C105.001 14.7521 104.698 14.8625 104.33 14.8625H93.2068V12.6545H104.247L103.115 13.4273C103.097 12.5073 102.913 11.6885 102.563 10.9709C102.214 10.2349 101.717 9.6553 101.073 9.2321C100.429 8.8089 99.6468 8.5973 98.7268 8.5973C97.678 8.5973 96.7764 8.8273 96.022 9.2873C95.286 9.7473 94.7248 10.3821 94.3384 11.1917C93.952 11.9829 93.7588 12.8845 93.7588 13.8965C93.7588 14.9085 93.9888 15.8101 94.4488 16.6013C94.9088 17.3925 95.5436 18.0181 96.3532 18.4781C97.1628 18.9381 98.092 19.1681 99.1408 19.1681C99.7112 19.1681 100.291 19.0669 100.88 18.8645C101.487 18.6437 101.974 18.3953 102.342 18.1193C102.618 17.9169 102.913 17.8157 103.226 17.8157C103.557 17.7973 103.842 17.8893 104.081 18.0917C104.394 18.3677 104.56 18.6713 104.578 19.0025C104.596 19.3337 104.449 19.6189 104.136 19.8581C103.511 20.3549 102.729 20.7597 101.79 21.0725C100.87 21.3853 99.9872 21.5417 99.1408 21.5417Z" fill="#7F6AA0"/>
</svg>
