<svg width="57" height="56" viewBox="0 0 57 56" fill="none" xmlns="http://www.w3.org/2000/svg">
<path d="M19.168 44.6667C19.168 43.8382 19.8395 43.1667 20.668 43.1667H34.0013C34.8297 43.1667 35.5013 43.8382 35.5013 44.6667V45.1667C35.5013 45.9951 34.8297 46.6667 34.0013 46.6667H20.668C19.8395 46.6667 19.168 45.9951 19.168 45.1667V44.6667ZM22.668 51.6667C22.668 50.8382 23.3395 50.1667 24.168 50.1667H30.5013C31.3297 50.1667 32.0013 50.8382 32.0013 51.6667V52.1667C32.0013 52.9951 31.3297 53.6667 30.5013 53.6667H24.168C23.3395 53.6667 22.668 52.9951 22.668 52.1667V51.6667Z" fill="#9473DB"/>
<path d="M43.0346 11.7875C40.7688 7.23132 36.3897 3.86846 31.3135 2.76197C25.9976 1.5904 20.551 2.84876 16.3898 6.18992C12.2068 9.50939 9.83203 14.4777 9.83203 19.7932C9.83203 25.4125 13.2089 31.2921 18.307 34.6983V36.4991C18.2852 37.1065 18.2634 38.0395 19.0041 38.7988C19.7667 39.5799 20.8995 39.6667 21.7928 39.6667H32.9692C34.1457 39.6667 35.0389 39.3412 35.649 38.7337C36.4769 37.8876 36.4551 36.8028 36.4333 36.217V34.6983C43.1871 30.1639 47.4354 20.596 43.0346 11.7875Z" fill="#9473DB"/>
</svg>
