<svg width="57" height="57" viewBox="0 0 57 57" fill="none" xmlns="http://www.w3.org/2000/svg">
<path d="M37.3672 5.65667C36.4106 4.7 34.7539 5.35333 34.7539 6.68333V14.8267C34.7539 18.2333 37.6472 21.0567 41.1706 21.0567C43.3872 21.08 46.4672 21.08 49.1039 21.08C50.4339 21.08 51.1339 19.5167 50.2006 18.5833C46.8406 15.2 40.8206 9.11 37.3672 5.65667Z" fill="#9473DB"/>
<path d="M48.332 24.2767H41.5887C36.0587 24.2767 31.5554 19.7733 31.5554 14.2433V7.5C31.5554 6.21667 30.5054 5.16667 29.222 5.16667H19.3287C12.142 5.16667 6.33203 9.83333 6.33203 18.1633V38.8367C6.33203 47.1667 12.142 51.8333 19.3287 51.8333H37.6687C44.8554 51.8333 50.6654 47.1667 50.6654 38.8367V26.61C50.6654 25.3267 49.6154 24.2767 48.332 24.2767ZM27.332 41.9167H17.9987C17.042 41.9167 16.2487 41.1233 16.2487 40.1667C16.2487 39.21 17.042 38.4167 17.9987 38.4167H27.332C28.2887 38.4167 29.082 39.21 29.082 40.1667C29.082 41.1233 28.2887 41.9167 27.332 41.9167ZM31.9987 32.5833H17.9987C17.042 32.5833 16.2487 31.79 16.2487 30.8333C16.2487 29.8767 17.042 29.0833 17.9987 29.0833H31.9987C32.9554 29.0833 33.7487 29.8767 33.7487 30.8333C33.7487 31.79 32.9554 32.5833 31.9987 32.5833Z" fill="#9473DB"/>
</svg>
