<svg width="36" height="38" viewBox="0 0 36 38" fill="none" xmlns="http://www.w3.org/2000/svg">
<path d="M34.0346 9.78746C31.7688 5.23132 27.3897 1.86846 22.3135 0.761973C16.9976 -0.409605 11.551 0.848756 7.38975 4.18992C3.20675 7.50939 0.832031 12.4777 0.832031 17.7932C0.832031 23.4125 4.20893 29.2921 9.30696 32.6983V34.4991C9.28517 35.1065 9.26338 36.0395 10.0041 36.7988C10.7667 37.5799 11.8995 37.6667 12.7928 37.6667H23.9692C25.1457 37.6667 26.0389 37.3412 26.649 36.7337C27.4769 35.8876 27.4551 34.8028 27.4333 34.217V32.6983C34.1871 28.1639 38.4354 18.596 34.0346 9.78746Z" fill="#9473DB"/>
</svg>
