<svg width="57" height="56" viewBox="0 0 57 56" fill="none" xmlns="http://www.w3.org/2000/svg">
<path d="M49.8487 14.3967C48.892 13.8833 46.8854 13.3467 44.1554 15.26L40.7254 17.6867C40.4687 10.43 37.3187 7.58334 29.6654 7.58334H15.6654C7.68536 7.58334 4.58203 10.6867 4.58203 18.6667L4.58203 24.8333C4.58203 25.9379 5.47039 26.8333 6.57496 26.8333C9.68292 26.8333 15.9246 26.8333 21.6667 26.8333C26.085 26.8333 29.6654 30.4151 29.6654 34.8333V46.4167C29.6654 47.5212 30.563 48.4297 31.6642 48.3432C37.8737 47.8557 40.4923 44.9025 40.7254 38.3133L44.1554 40.74C45.602 41.7667 46.862 42.0933 47.8654 42.0933C48.7287 42.0933 49.4054 41.8367 49.8487 41.6033C50.8054 41.1133 52.4154 39.7833 52.4154 36.4467V19.5533C52.4154 16.2167 50.8054 14.8867 49.8487 14.3967Z" fill="#9473DB"/>
<path d="M18.7233 30.3333H7.94334C3.28667 30.3333 0.5 33.12 0.5 37.7767V48.5567C0.5 53.2133 3.28667 56 7.94334 56H18.7233C23.38 56 26.1667 53.2133 26.1667 48.5567V37.7767C26.1667 33.12 23.38 30.3333 18.7233 30.3333ZM11.5367 50.7567C11.4267 50.8667 11.17 51.0133 10.9867 51.0133L7.17333 51.5633C7.06333 51.6 6.91666 51.6 6.80666 51.6C6.25666 51.6 5.78 51.4167 5.45 51.05C5.01 50.61 4.82666 49.9867 4.93666 49.3267L5.48667 45.5133C5.52334 45.33 5.63333 45.0733 5.74333 44.9633L11.9767 38.73C12.0867 38.9867 12.1967 39.28 12.3067 39.5733C12.4533 39.8667 12.6 40.1233 12.7467 40.38C12.8567 40.6 13.0033 40.82 13.15 40.9667C13.2967 41.1867 13.4433 41.4067 13.5533 41.5167C13.6267 41.6267 13.6633 41.6633 13.7 41.7C14.03 42.1033 14.3967 42.47 14.7267 42.7267C14.8 42.8 14.8733 42.8733 14.91 42.8733C15.0933 43.02 15.3133 43.2033 15.46 43.3133C15.68 43.46 15.8633 43.6067 16.0833 43.7167C16.34 43.8633 16.6333 44.01 16.9267 44.1567C17.22 44.3033 17.5133 44.4133 17.77 44.4867L11.5367 50.7567ZM20.3 41.9933L19.09 43.2033C19.0533 43.2767 18.9433 43.3133 18.8333 43.3133C18.7967 43.3133 18.76 43.3133 18.7233 43.3133C16.0833 42.5433 13.9933 40.4533 13.2233 37.8133C13.1867 37.6667 13.2233 37.52 13.3333 37.41L14.5433 36.2C16.5233 34.22 18.3933 34.2567 20.3367 36.2C21.3267 37.19 21.8033 38.1433 21.8033 39.0967C21.7667 40.05 21.29 41.0033 20.3 41.9933Z" fill="#9473DB"/>
</svg>
