<svg width="57" height="56" viewBox="0 0 57 56" fill="none" xmlns="http://www.w3.org/2000/svg">
<path d="M49.8487 14.3967C48.892 13.8833 46.8854 13.3467 44.1554 15.26L40.7254 17.6867C40.4687 10.43 37.3187 7.58333 29.6654 7.58333H15.6654C7.68536 7.58333 4.58203 10.6867 4.58203 18.6667V37.3333C4.58203 42.7 7.4987 48.4167 15.6654 48.4167H29.6654C37.3187 48.4167 40.4687 45.57 40.7254 38.3133L44.1554 40.74C45.602 41.7667 46.862 42.0933 47.8654 42.0933C48.7287 42.0933 49.4054 41.8367 49.8487 41.6033C50.8054 41.1133 52.4154 39.7833 52.4154 36.4467V19.5533C52.4154 16.2167 50.8054 14.8867 49.8487 14.3967Z" fill="#9473DB"/>
</svg>
