<svg width="57" height="56" viewBox="0 0 57 56" fill="none" xmlns="http://www.w3.org/2000/svg">
<path d="M49.4313 24.1967V31.64C49.4313 37.0533 45.0446 41.44 39.6313 41.44H31.3246C30.0413 41.44 28.9913 42.4667 28.9913 43.7733V45.6867C28.9913 46.97 30.0413 48.02 31.3246 48.02H36.598C37.508 48.02 38.2546 48.7433 38.2546 49.6767C38.2546 50.5867 37.508 51.3333 36.598 51.3333H18.0713C17.1613 51.3333 16.4146 50.5867 16.4146 49.6767C16.4146 48.7433 17.1613 48.02 18.0713 48.02H23.3446C24.628 48.02 25.678 46.97 25.678 45.6867V43.7733C25.678 42.4667 24.628 41.44 23.3446 41.44H14.9446C9.55464 41.44 5.16797 37.0533 5.16797 31.64V16.7767C5.16797 11.3867 9.55464 7 14.9446 7H25.0013C26.2846 7 27.3346 8.05 27.3346 9.33333V14.35C27.3346 18.8533 30.3446 21.8633 34.8246 21.8633H47.098C48.3813 21.8633 49.4313 22.9133 49.4313 24.1967Z" fill="#9473DB"/>
<path d="M51.8087 5.50666L49.172 7.35V6.37C49.172 4.15333 47.3754 2.38 45.182 2.38H35.1954C32.792 2.35666 30.832 4.31666 30.832 6.72V14.3733C30.832 16.38 31.8354 18.3633 34.822 18.3633H45.1587C47.3754 18.3633 49.1487 16.5667 49.1487 14.3733V13.37L51.7854 15.2133C53.1154 16.1233 54.1654 15.5633 54.1654 13.9767V6.74333C54.1654 5.15666 53.1154 4.62 51.8087 5.50666Z" fill="#9473DB"/>
</svg>
