<svg width="57" height="56" viewBox="0 0 57 56" fill="none" xmlns="http://www.w3.org/2000/svg">
<path d="M28.4984 51.17C16.7384 51.17 7.14844 41.6033 7.14844 29.82V25.4333C7.14844 24.5233 7.8951 23.8 8.78177 23.8C9.66844 23.8 10.4151 24.5467 10.4151 25.4333V29.82C10.4151 39.7833 18.5118 47.88 28.4751 47.88C38.4384 47.88 46.5351 39.7833 46.5351 29.82V25.4333C46.5351 24.5233 47.2818 23.8 48.1684 23.8C49.0551 23.8 49.8018 24.5467 49.8018 25.4333V29.82C49.8484 41.6033 40.2584 51.17 28.4984 51.17Z" fill="#9473DB"/>
<path d="M28.499 4.66666C20.659 4.66666 14.2656 11.06 14.2656 18.9V29.8433C14.2656 37.6833 20.659 44.0767 28.499 44.0767C36.339 44.0767 42.7323 37.6833 42.7323 29.8433V18.9C42.7323 11.06 36.339 4.66666 28.499 4.66666ZM33.5856 24.71C33.4223 25.34 32.839 25.76 32.209 25.76C32.0923 25.76 31.9523 25.7367 31.8356 25.7133C29.4556 25.06 26.9356 25.06 24.5556 25.7133C23.7856 25.9233 23.0156 25.48 22.8056 24.71C22.5956 23.9633 23.039 23.17 23.809 22.96C26.679 22.1667 29.7123 22.1667 32.5823 22.96C33.3523 23.17 33.7956 23.94 33.5856 24.71ZM35.569 18.2467C35.359 18.83 34.8223 19.18 34.239 19.18C34.0756 19.18 33.9123 19.1567 33.749 19.0867C30.179 17.78 26.259 17.78 22.689 19.0867C21.9423 19.3667 21.1256 18.9933 20.8456 18.2467C20.589 17.5233 20.9623 16.7067 21.709 16.4267C25.909 14.91 30.529 14.91 34.7056 16.4267C35.4523 16.7067 35.8256 17.5233 35.569 18.2467Z" fill="#9473DB"/>
</svg>
